<?xml version="1.0"?>
<svg xmlns="http://www.w3.org/2000/svg" width="512" height="512" viewBox="0 0 512 512"><g><path d="M447.96,8H64.04A24.047,24.047,0,0,0,40,32V416a24.047,24.047,0,0,0,24.04,24H206.71c4.23,8.87,10.47,19.03,18.8,30.61,12.11,16.85,24.03,30.17,24.54,30.73a7.985,7.985,0,0,0,11.9,0c.51-.56,12.43-13.88,24.54-30.73,8.33-11.58,14.57-21.74,18.8-30.61H447.96A24.047,24.047,0,0,0,472,416V32A24.047,24.047,0,0,0,447.96,8ZM256,483.8c-17.47-20.73-40-52.55-40-67.8a39.834,39.834,0,0,1,8.01-24H232v16a8,8,0,0,0,8,8h32a8,8,0,0,0,8-8V392h7.99A39.834,39.834,0,0,1,296,416C296,431.25,273.47,463.07,256,483.8ZM248,400V360h16v40Zm48-24H280V352a8,8,0,0,0-8-8H240a8,8,0,0,0-8,8v24H216V184h80Zm0-208H216v-3.16a8.01,8.01,0,0,1,1.24-4.27L256,109.27l38.76,51.3a8.01,8.01,0,0,1,1.24,4.27ZM456,416a8.032,8.032,0,0,1-8.04,8H311.06a37.817,37.817,0,0,0,.94-8,55.95,55.95,0,0,0-5.58-24.37A8.013,8.013,0,0,0,312,384v-4.68l37.33,13.22a8,8,0,0,0,10.54-9l-24-129A8.014,8.014,0,0,0,328,248H312V164.84a23.9,23.9,0,0,0-4.03-13.3c-.09-.13-.18-.27-.28-.39L262.38,91.18a7.99,7.99,0,0,0-12.76,0l-45.31,59.97c-.1.12-.19.26-.28.39a23.9,23.9,0,0,0-4.03,13.3V248H184a8,8,0,0,0-7.86,6.53l-24,128A7.992,7.992,0,0,0,160,392a7.884,7.884,0,0,0,2.53-.41L200,379.1V384a8.013,8.013,0,0,0,5.58,7.63A55.95,55.95,0,0,0,200,416a37.817,37.817,0,0,0,.94,8H64.04A8.032,8.032,0,0,1,56,416V72H456ZM312,362.35V264h9.35L341.6,372.83ZM200,264v98.23l-29.63,9.88L190.64,264ZM456,56H56V32a8.032,8.032,0,0,1,8.04-8H447.96A8.032,8.032,0,0,1,456,32Z"/><circle cx="72" cy="40" r="8"/><circle cx="97" cy="40" r="8"/><path d="M256,192a32,32,0,1,0,32,32A32.036,32.036,0,0,0,256,192Zm0,48a16,16,0,1,1,13.835-24H256a8,8,0,0,0,0,16h13.835A16,16,0,0,1,256,240Z"/><path d="M256,264a8,8,0,0,0-8,8v24a8,8,0,0,0,16,0V272A8,8,0,0,0,256,264Z"/><path d="M256,312a8,8,0,0,0-8,8v8a8,8,0,0,0,16,0v-8A8,8,0,0,0,256,312Z"/></g></svg>
